<?xml version="1.0" encoding="UTF-8" standalone="no"?>
<svg
   enable-background="new 0 0 24 24"
   height="24px"
   viewBox="0 0 24 24"
   width="24px"
   fill="#1f1f1f"
   version="1.1"
   id="svg2"
   sodipodi:docname="currency_bitcoin_24dp_1F1F1F.svg"
   inkscape:version="1.4 (86a8ad7, 2024-10-11)"
   xmlns:inkscape="http://www.inkscape.org/namespaces/inkscape"
   xmlns:sodipodi="http://sodipodi.sourceforge.net/DTD/sodipodi-0.dtd"
   xmlns="http://www.w3.org/2000/svg"
   xmlns:svg="http://www.w3.org/2000/svg">
  <defs
     id="defs2" />
  <sodipodi:namedview
     id="namedview2"
     pagecolor="#ffffff"
     bordercolor="#000000"
     borderopacity="0.25"
     inkscape:showpageshadow="2"
     inkscape:pageopacity="0.0"
     inkscape:pagecheckerboard="0"
     inkscape:deskcolor="#d1d1d1"
     inkscape:zoom="26.458333"
     inkscape:cx="12.018898"
     inkscape:cy="12"
     inkscape:window-width="1600"
     inkscape:window-height="837"
     inkscape:window-x="-8"
     inkscape:window-y="-8"
     inkscape:window-maximized="1"
     inkscape:current-layer="svg2" />
  <g
     id="g1">
    <rect
       fill="none"
       height="24"
       width="24"
       id="rect1" />
  </g>
  <g
     id="g2"
     style="fill:#ffffff">
    <path
       d="M17.06,11.57C17.65,10.88,18,9.98,18,9c0-1.86-1.27-3.43-3-3.87L15,3h-2v2h-2V3H9v2H6v2h2v10H6v2h3v2h2v-2h2v2h2v-2 c2.21,0,4-1.79,4-4C19,13.55,18.22,12.27,17.06,11.57z M10,7h4c1.1,0,2,0.9,2,2s-0.9,2-2,2h-4V7z M15,17h-5v-4h5c1.1,0,2,0.9,2,2 S16.1,17,15,17z"
       id="path1"
       style="fill:#ffffff" />
  </g>
</svg>
