<?xml version="1.0" encoding="UTF-8" standalone="no"?>
<svg
   height="24px"
   viewBox="0 -960 960 960"
   width="24px"
   fill="#1f1f1f"
   version="1.1"
   id="svg1"
   sodipodi:docname="handyman_24dp_1F1F1F_FILL0_wght400_GRAD0_opsz24.svg"
   inkscape:version="1.4 (86a8ad7, 2024-10-11)"
   xmlns:inkscape="http://www.inkscape.org/namespaces/inkscape"
   xmlns:sodipodi="http://sodipodi.sourceforge.net/DTD/sodipodi-0.dtd"
   xmlns="http://www.w3.org/2000/svg"
   xmlns:svg="http://www.w3.org/2000/svg">
  <defs
     id="defs1" />
  <sodipodi:namedview
     id="namedview1"
     pagecolor="#ffffff"
     bordercolor="#000000"
     borderopacity="0.25"
     inkscape:showpageshadow="2"
     inkscape:pageopacity="0.0"
     inkscape:pagecheckerboard="0"
     inkscape:deskcolor="#d1d1d1"
     inkscape:zoom="38.958333"
     inkscape:cx="12.012834"
     inkscape:cy="12"
     inkscape:window-width="1920"
     inkscape:window-height="1137"
     inkscape:window-x="1592"
     inkscape:window-y="-8"
     inkscape:window-maximized="1"
     inkscape:current-layer="svg1" />
  <path
     d="M754-81q-8 0-15-2.5T726-92L522-296q-6-6-8.5-13t-2.5-15q0-8 2.5-15t8.5-13l85-85q6-6 13-8.5t15-2.5q8 0 15 2.5t13 8.5l204 204q6 6 8.5 13t2.5 15q0 8-2.5 15t-8.5 13l-85 85q-6 6-13 8.5T754-81Zm0-95 29-29-147-147-29 29 147 147ZM205-80q-8 0-15.5-3T176-92l-84-84q-6-6-9-13.5T80-205q0-8 3-15t9-13l212-212h85l34-34-165-165h-57L80-765l113-113 121 121v57l165 165 116-116-43-43 56-56H495l-28-28 142-142 28 28v113l56-56 142 142q17 17 26 38.5t9 45.5q0 24-9 46t-26 39l-85-85-56 56-42-42-207 207v84L233-92q-6 6-13 9t-15 3Zm0-96 170-170v-29h-29L176-205l29 29Zm0 0-29-29 15 14 14 15Zm549 0 29-29-29 29Z"
     id="path1"
     style="fill:#ffffff" />
</svg>
