<?xml version="1.0" encoding="UTF-8" standalone="no"?>
<!-- Created with Inkscape (http://www.inkscape.org/) -->

<svg
   width="200"
   height="200"
   viewBox="0 0 52.916667 52.916666"
   version="1.1"
   id="svg1"
   sodipodi:docname="Chip.svg"
   inkscape:version="1.4.3 (0d15f75, 2025-12-25)"
   xmlns:inkscape="http://www.inkscape.org/namespaces/inkscape"
   xmlns:sodipodi="http://sodipodi.sourceforge.net/DTD/sodipodi-0.dtd"
   xmlns="http://www.w3.org/2000/svg"
   xmlns:svg="http://www.w3.org/2000/svg">
  <sodipodi:namedview
     id="namedview1"
     pagecolor="#ffffff"
     bordercolor="#000000"
     borderopacity="0.25"
     inkscape:showpageshadow="2"
     inkscape:pageopacity="0.0"
     inkscape:pagecheckerboard="0"
     inkscape:deskcolor="#d1d1d1"
     inkscape:document-units="px"
     showguides="true"
     showgrid="true"
     inkscape:zoom="1.0167041"
     inkscape:cx="150.97805"
     inkscape:cy="177.53445"
     inkscape:window-width="1920"
     inkscape:window-height="1009"
     inkscape:window-x="-8"
     inkscape:window-y="-8"
     inkscape:window-maximized="1"
     inkscape:current-layer="layer1">
    <sodipodi:guide
       position="26.458332,26.458334"
       orientation="0,-1"
       id="guide1"
       inkscape:locked="false" />
    <sodipodi:guide
       position="26.458332,-22.1614"
       orientation="1,0"
       id="guide2"
       inkscape:locked="false" />
    <inkscape:grid
       id="grid2"
       units="px"
       originx="0"
       originy="0"
       spacingx="2.6458333"
       spacingy="2.6458333"
       empcolor="#0099e5"
       empopacity="0.30196078"
       color="#0099e5"
       opacity="0.14901961"
       empspacing="10"
       enabled="true"
       visible="true" />
  </sodipodi:namedview>
  <defs
     id="defs1">
    <inkscape:path-effect
       effect="copy_rotate"
       starting_point="32.508609,26.458333"
       origin="26.458332,26.458333"
       id="path-effect12"
       is_visible="true"
       lpeversion="1.2"
       lpesatellites=""
       method="normal"
       num_copies="6"
       starting_angle="0"
       rotation_angle="60"
       gap="-0.01"
       copies_to_360="true"
       mirror_copies="false"
       split_items="false"
       link_styles="false" />
    <inkscape:path-effect
       effect="copy_rotate"
       starting_point="27.781248,26.458333"
       origin="26.458332,26.458333"
       id="path-effect11"
       is_visible="true"
       lpeversion="1.2"
       lpesatellites=""
       method="normal"
       num_copies="12"
       starting_angle="0"
       rotation_angle="30"
       gap="-0.01"
       copies_to_360="true"
       mirror_copies="false"
       split_items="false"
       link_styles="false" />
    <inkscape:path-effect
       effect="copy_rotate"
       starting_point="24.94,21.62183"
       origin="24.94,25.720552"
       id="path-effect10"
       is_visible="true"
       lpeversion="1.2"
       lpesatellites=""
       method="normal"
       num_copies="8"
       starting_angle="0"
       rotation_angle="0"
       gap="0"
       copies_to_360="true"
       mirror_copies="false"
       split_items="false"
       link_styles="false" />
  </defs>
  <g
     inkscape:label="Layer 1"
     inkscape:groupmode="layer"
     id="layer1">
    <circle
       style="fill:#008000;stroke-width:0.264583"
       id="path2"
       cx="26.458332"
       cy="26.458332"
       r="26.458332" />
    <path
       id="path2-8"
       style="fill:#ffffff;stroke-width:0.238125"
       d="m 26.458332,2.6458333 c -2.041919,-3.34e-5 -4.075362,0.2625703 -6.05028,0.7813477 l 1.36943,5.1113159 c 1.528272,-0.3991131 3.101323,-0.6010846 4.68085,-0.6009969 1.579527,-8.77e-5 3.152578,0.2018838 4.68085,0.6009969 L 32.508606,3.427181 C 30.53369,2.9084041 28.500249,2.6458004 26.458332,2.6458333 Z M 5.8361023,14.552083 C 4.815114,16.32042 4.025814,18.212735 3.4876293,20.182453 l 5.1112444,1.369697 c 0.418494,-1.523079 1.0301068,-2.986366 1.8199463,-4.354234 0.789688,-1.367954 1.751126,-2.62927 2.860904,-3.753236 L 9.5379063,9.703066 c -1.4367321,1.450939 -2.6808741,3.080649 -3.701804,4.849017 z m 0,23.8125 c 1.0209305,1.76837 2.2650735,3.398081 3.701807,4.849022 L 13.279724,39.471986 C 12.169946,38.34802 11.208508,37.086704 10.41882,35.71875 9.6289805,34.350882 9.0173677,32.887595 8.5988737,31.364516 l -5.1112414,1.369702 c 0.5381842,1.969716 1.3274832,3.86203 2.34847,5.630365 z m 20.6222297,11.90625 c 2.041919,3.3e-5 4.075362,-0.262571 6.05028,-0.781348 l -1.36943,-5.111316 c -1.528272,0.399113 -3.101323,0.601085 -4.68085,0.600997 -1.579527,8.8e-5 -3.152578,-0.201884 -4.68085,-0.600997 l -1.369424,5.111316 c 1.974916,0.518777 4.008357,0.781381 6.050274,0.781348 z m 20.62223,-11.90625 c 1.020988,-1.768337 1.810288,-3.660652 2.348473,-5.63037 L 44.31779,31.364516 c -0.418494,1.523079 -1.030106,2.986366 -1.819946,4.354234 -0.789688,1.367954 -1.751126,2.62927 -2.860904,3.753236 l 3.741818,3.741614 c 1.436732,-1.450939 2.680874,-3.080649 3.701804,-4.849017 z m 0,-23.8125 C 46.059631,12.783713 44.815488,11.154002 43.378755,9.7030608 L 39.63694,13.44468 c 1.109778,1.123966 2.071216,2.385282 2.860904,3.753236 0.78984,1.367868 1.401452,2.831155 1.819946,4.354234 l 5.111242,-1.369702 c -0.538185,-1.969716 -1.327483,-3.86203 -2.34847,-5.630365 z"
       inkscape:path-effect="#path-effect12"
       inkscape:original-d="m 26.458332,2.6458333 a 23.812498,23.812498 0 0 0 -6.05028,0.7813477 l 1.36943,5.1113159 A 18.520834,18.520832 0 0 1 26.458332,7.9375 18.520834,18.520832 0 0 1 31.139182,8.5384969 L 32.508606,3.427181 A 23.812498,23.812498 0 0 0 26.458332,2.6458333 Z" />
    <circle
       style="fill:none;fill-opacity:1;stroke:#ffffff;stroke-width:1.88127;stroke-dasharray:none;stroke-opacity:1"
       id="path3"
       cx="26.29664"
       cy="26.620024"
       r="9.4810076" />
    <path
       style="fill:#ffffff;fill-opacity:1;stroke:none;stroke-width:0.92604;stroke-dasharray:none;stroke-opacity:1"
       id="path10"
       inkscape:path-effect="#path-effect11"
       sodipodi:type="arc"
       sodipodi:cx="26.458332"
       sodipodi:cy="13.229166"
       sodipodi:rx="1.3229164"
       sodipodi:ry="1.3229165"
       d="m 27.781248,13.229166 c 0,0.730627 -0.592289,1.322917 -1.322916,1.322917 -0.730626,0 -1.322916,-0.59229 -1.322916,-1.322917 0,-0.730627 0.59229,-1.322916 1.322916,-1.322916 0.730627,0 1.322916,0.592289 1.322916,1.322916 z m -6.79182,1.110914 c 0.365313,0.632741 0.14852,1.441824 -0.484221,1.807138 -0.632741,0.365313 -1.441824,0.14852 -1.807138,-0.484222 -0.365313,-0.632741 -0.14852,-1.441824 0.484221,-1.807137 0.632741,-0.365313 1.441824,-0.14852 1.807138,0.484221 z m -5.326432,4.35799 c 0.632741,0.365314 0.849534,1.174397 0.484221,1.807138 -0.365314,0.632741 -1.174397,0.849534 -1.807138,0.484221 -0.632741,-0.365314 -0.849534,-1.174397 -0.484221,-1.807138 0.365313,-0.632741 1.174396,-0.849534 1.807138,-0.484221 z m -2.433831,6.437347 c 0.730627,0 1.322917,0.592289 1.322917,1.322916 0,0.730626 -0.59229,1.322916 -1.322917,1.322916 -0.730627,0 -1.322916,-0.59229 -1.322916,-1.322916 0,-0.730627 0.592289,-1.322916 1.322916,-1.322916 z m 1.110914,6.79182 c 0.632741,-0.365313 1.441824,-0.14852 1.807138,0.484221 0.365313,0.632741 0.14852,1.441824 -0.484222,1.807138 -0.632741,0.365313 -1.441824,0.14852 -1.807137,-0.484221 -0.365313,-0.632741 -0.14852,-1.441824 0.484221,-1.807138 z m 4.35799,5.326432 c 0.365314,-0.632741 1.174397,-0.849534 1.807138,-0.484221 0.632741,0.365314 0.849534,1.174397 0.484221,1.807138 -0.365314,0.632741 -1.174397,0.849534 -1.807138,0.484221 -0.632741,-0.365313 -0.849534,-1.174396 -0.484221,-1.807138 z m 6.437347,2.433831 c 0,-0.730627 0.592289,-1.322917 1.322916,-1.322917 0.730626,0 1.322916,0.59229 1.322916,1.322917 0,0.730627 -0.59229,1.322916 -1.322916,1.322916 -0.730627,0 -1.322916,-0.592289 -1.322916,-1.322916 z m 6.79182,-1.110914 c -0.365313,-0.632741 -0.14852,-1.441824 0.484221,-1.807138 0.632741,-0.365313 1.441824,-0.14852 1.807138,0.484222 0.365313,0.632741 0.14852,1.441824 -0.484221,1.807137 -0.632741,0.365313 -1.441824,0.14852 -1.807138,-0.484221 z m 5.326432,-4.35799 c -0.632741,-0.365314 -0.849534,-1.174397 -0.484221,-1.807138 0.365314,-0.632741 1.174397,-0.849534 1.807138,-0.484221 0.632741,0.365314 0.849534,1.174397 0.484221,1.807138 -0.365313,0.632741 -1.174396,0.849534 -1.807138,0.484221 z m 2.433831,-6.437347 c -0.730627,0 -1.322917,-0.592289 -1.322917,-1.322916 0,-0.730626 0.59229,-1.322916 1.322917,-1.322916 0.730627,0 1.322916,0.59229 1.322916,1.322916 0,0.730627 -0.592289,1.322916 -1.322916,1.322916 z m -1.110914,-6.79182 c -0.632741,0.365313 -1.441824,0.14852 -1.807138,-0.484221 -0.365313,-0.632741 -0.14852,-1.441824 0.484222,-1.807138 0.632741,-0.365313 1.441824,-0.14852 1.807137,0.484221 0.365313,0.632741 0.14852,1.441824 -0.484221,1.807138 z m -4.35799,-5.326432 c -0.365314,0.632741 -1.174397,0.849534 -1.807138,0.484221 -0.632741,-0.365314 -0.849534,-1.174397 -0.484221,-1.807138 0.365314,-0.632741 1.174397,-0.849534 1.807138,-0.484221 0.632741,0.365313 0.849534,1.174396 0.484221,1.807138 z" />
  </g>
</svg>
